#!OML:ASF F:\VICON\USERDATA\INSTALL\rory3\rory3.ASF
:FULLY-SPECIFIED
:DEGREES
2159
root 0.107423 17.4645 0.141908 5.56452 1.70809 -2.27968
lowerback -6.16172 -0.0467971 -0.570523
upperback -3.58721 -0.0386794 1.77057
thorax -0.23716 0.00635612 2.13802
lowerneck -18.3619 -10.573 -14.177
upperneck 35.5405 -16.2255 12.2887
head 19.0728 -6.9378 4.55234
rclavicle 3.23025e-016 4.96962e-015
rhumerus -34.4607 -9.55135 -81.7659
rradius 19.5835
rwrist 37.5763
rhand -10.4081 14.4501
rfingers 7.12502
rthumb 15.5906 -14.9415
lclavicle 3.23025e-016 4.96962e-015
lhumerus 327.43 -0.824467 -267.438
lradius 15.983
lwrist -23.8755
lhand -10.6362 21.3371
lfingers 7.12502
lthumb 15.3709 50.7457
rfemur 3.93281 11.1828 21.4509
rtibia 0
rfoot -7.23819 -12.4656
rtoes -14.2653
lfemur -5.53498 -22.2033 -16.2318
ltibia 15.7346
lfoot -15.3805 15.8873
ltoes -17.7414
2160
root 0.107371 17.464 0.144179 5.55834 1.69032 -2.28461
lowerback -6.18178 -0.0523166 -0.607598
upperback -3.56833 -0.0445947 1.80467
thorax -0.206399 0.00389984 2.19371
lowerneck -18.3515 -10.5784 -14.2441
upperneck 35.5054 -16.2318 12.3518
head 19.07 -6.94254 4.59167
rclavicle -2.54693e-015 -2.94201e-014
rhumerus -34.4461 -9.4931 -81.7436
rradius 19.6123
rwrist 37.6151
rhand -10.3897 14.4832
rfingers 7.12502
rthumb 15.6083 -14.9071
lclavicle -2.54693e-015 -2.94201e-014
lhumerus 327.469 -0.692557 -267.431
lradius 15.9733
lwrist -23.8744
lhand -10.7742 21.246
lfingers 7.12502
lthumb 15.238 50.6648
rfemur 3.94672 11.2005 21.4575
rtibia -1.59028e-014
rfoot -7.25603 -12.4718
rtoes -13.9112
lfemur -5.50263 -22.2286 -16.2356
ltibia 15.7205
lfoot -15.5012 15.884
ltoes -17.2002
2161
root 0.107409 17.4637 0.145671 5.55119 1.68537 -2.28865
lowerback -6.19163 -0.0487586 -0.625294
upperback -3.54275 -0.0393184 1.80799
thorax -0.174825 0.00641858 2.2074
lowerneck -18.3666 -10.5849 -14.1155
upperneck 35.4705 -16.2586 12.2972
head 19.0322 -6.94103 4.53304
rclavicle 1.93815e-015 -9.14409e-015
rhumerus -34.412 -9.59946 -81.7021
rradius 19.6107
rwrist 37.7625
rhand -10.3325 14.5549
rfingers 7.12502
rthumb 15.6635 -14.831
lclavicle 1.93815e-015 -9.14409e-015
lhumerus 327.544 -0.677256 -267.422
lradius 15.9642
lwrist -23.7729
lhand -10.8755 21.35
lfingers 7.12502
lthumb 15.1404 50.7762
rfemur 3.95885 11.2054 21.4668
rtibia -1.27222e-014
rfoot -7.27489 -12.4762
rtoes -13.6198
lfemur -5.4649 -22.1889 -16.2423
ltibia 15.687
lfoot -15.4755 15.9005
ltoes -17.568
2162
root 0.107874 17.4631 0.147402 5.53759 1.68704 -2.21853
lowerback -6.17192 -0.057727 -0.702453
upperback -3.53006 -0.0473054 1.78767
thorax -0.172368 0.00320086 2.22937
lowerneck -18.3805 -10.5883 -14.0104
upperneck 35.4471 -16.2864 12.27
head 19.0092 -6.94012 4.49261
rclavicle 2.74571e-015 -1.51076e-014
rhumerus -34.4087 -9.67263 -81.677
rradius 19.6046
rwrist 37.8488
rhand -10.2473 14.5997
rfingers 7.12502
rthumb 15.7455 -14.7798
lclavicle 2.74571e-015 -1.51076e-014
lhumerus 327.564 -0.617921 -267.441
lradius 15.9718
lwrist -23.748
lhand -10.9055 21.4205
lfingers 7.12502
lthumb 15.1115 50.8488
rfemur 3.9908 11.1959 21.3893
rtibia -7.95139e-015
rfoot -7.34189 -12.4863
rtoes -14.0975
lfemur -5.43645 -22.1419 -16.3341
ltibia 15.6826
lfoot -15.4226 15.9004
ltoes -18.0773
2163
root 0.108348 17.4632 0.149129 5.52422 1.68751 -2.17933
lowerback -6.15863 -0.059786 -0.740217
upperback -3.51724 -0.0481579 1.77018
thorax -0.166493 0.00299979 2.23252
lowerneck -18.3603 -10.6052 -14.0264
upperneck 35.3892 -16.329 12.3347
head 18.9915 -6.95256 4.51345
rclavicle 3.10601e-015 1.19271e-015
rhumerus -34.4253 -9.51398 -81.7709
rradius 19.6724
rwrist 37.625
rhand -10.2786 14.5647
rfingers 7.12502
rthumb 15.7153 -14.8172
lclavicle 3.10601e-015 1.19271e-015
lhumerus 327.582 -0.609803 -267.453
lradius 15.9643
lwrist -23.7895
lhand -10.9322 21.4884
lfingers 7.12502
lthumb 15.0858 50.9186
rfemur 4.0215 11.1906 21.3502
rtibia -9.54166e-015
rfoot -7.37491 -12.5037
rtoes -14.4824
lfemur -5.42574 -22.1238 -16.3843
ltibia 15.6888
lfoot -15.3453 15.8916
ltoes -18.3087
2164
root 0.108769 17.4631 0.148689 5.5414 1.70601 -2.24386
lowerback -6.16518 -0.0634425 -0.670818
upperback -3.4871 -0.0569731 1.77217
thorax -0.131382 -0.00283444 2.19497
lowerneck -18.4665 -10.6245 -13.9901
upperneck 35.3763 -16.3753 12.374
head 19.0242 -6.95573 4.51008
rclavicle 3.09359e-015 1.5704e-014
rhumerus -34.3474 -9.49937 -81.8309
rradius 19.6688
rwrist 37.5841
rhand -10.308 14.6017
rfingers 7.12502
rthumb 15.687 -14.7824
lclavicle 3.09359e-015 1.5704e-014
lhumerus 327.661 -0.841028 -267.386
lradius 15.9885
lwrist -23.5899
lhand -10.765 21.6382
lfingers 7.12502
lthumb 15.2468 51.0563
rfemur 3.99364 11.1792 21.4179
rtibia -1.43125e-014
rfoot -7.34226 -12.5057
rtoes -14.5608
lfemur -5.46381 -22.1032 -16.2967
ltibia 15.6947
lfoot -15.2793 15.8705
ltoes -18.5092
2165
root 0.109495 17.4631 0.149029 5.53292 1.70683 -2.24694
lowerback -6.1704 -0.046895 -0.683438
upperback -3.44853 -0.0347017 1.76247
thorax -0.0897226 0.00782532 2.1934
lowerneck -18.5153 -10.6759 -13.9728
upperneck 35.3145 -16.4632 12.4105
head 19.0232 -6.98106 4.49646
rclavicle 1.0635e-014 7.15625e-015
rhumerus -34.2575 -9.62494 -81.8051
rradius 19.6072
rwrist 37.7038
rhand -10.2545 14.6099
rfingers 7.12502
rthumb 15.7386 -14.7701
lclavicle 1.0635e-014 7.15625e-015
lhumerus 327.769 -0.855739 -267.403
lradius 15.9361
lwrist -23.7378
lhand -10.5826 21.7344
lfingers 7.12502
lthumb 15.4225 51.139
rfemur 3.99733 11.1787 21.4146
rtibia 1.43125e-014
rfoot -7.27521 -12.4688
rtoes -14.6338
lfemur -5.45177 -22.1088 -16.303
ltibia 15.7025
lfoot -15.3253 15.8825
ltoes -18.4368
2166
root 0.110635 17.4633 0.15081 5.5389 1.7104 -2.25439
lowerback -6.19732 -0.0340794 -0.654214
upperback -3.43772 -0.0191789 1.73313
thorax -0.0642464 0.0146995 2.14767
lowerneck -18.5043 -10.7001 -13.933
upperneck 35.2743 -16.5276 12.4457
head 19.011 -6.99743 4.48822
rclavicle 6.17475e-015 8.34896e-015
rhumerus -34.2522 -9.70897 -81.8236
rradius 19.5967
rwrist 37.7799
rhand -10.2142 14.6423
rfingers 7.12502
rthumb 15.7774 -14.7347
lclavicle 6.17475e-015 8.34896e-015
lhumerus 327.798 -0.936888 -267.427
lradius 15.9205
lwrist -23.8399
lhand -10.404 21.6662
lfingers 7.12502
lthumb 15.5946 51.0575
rfemur 3.99971 11.1757 21.4151
rtibia 1.59028e-015
rfoot -7.2875 -12.4444
rtoes -14.1135
lfemur -5.45255 -22.1379 -16.3066
ltibia 15.7185
lfoot -15.3227 15.9577
ltoes -18.7275
2167
root 0.110954 17.4625 0.15314 5.53692 1.70719 -2.22354
lowerback -6.20126 -0.0340947 -0.68895
upperback -3.4342 -0.0173132 1.71129
thorax -0.0585257 0.0158324 2.14482
lowerneck -18.4987 -10.7207 -13.9043
upperneck 35.2451 -16.5776 12.4671
head 19.0027 -7.01105 4.47922
rclavicle 9.83984e-015 -5.56597e-015
rhumerus -34.2632 -9.78259 -81.8128
rradius 19.5733
rwrist 37.8255
rhand -10.3487 14.6592
rfingers 7.12502
rthumb 15.6478 -14.728
lclavicle 9.83984e-015 -5.56597e-015
lhumerus 327.773 -1.06238 -267.392
lradius 15.9644
lwrist -23.8225
lhand -10.4968 21.7381
lfingers 7.12502
lthumb 15.5052 51.1364
rfemur 4.01629 11.1753 21.3818
rtibia -9.54166e-015
rfoot -7.3221 -12.4611
rtoes -13.5803
lfemur -5.42875 -22.1593 -16.3486
ltibia 15.6948
lfoot -15.2737 15.973
ltoes -18.9057
2168
root 0.110993 17.4624 0.154272 5.53493 1.6907 -2.25349
lowerback -6.2123 -0.0144986 -0.65629
upperback -3.41609 0.00687542 1.70347
thorax -0.0347057 0.0271533 2.11986
lowerneck -18.4937 -10.7548 -13.8973
upperneck 35.1963 -16.6433 12.5035
head 18.9919 -7.03194 4.47592
rclavicle -9.05713e-015 -2.38542e-014
rhumerus -34.2836 -9.83527 -81.8155
rradius 19.6284
rwrist 37.8262
rhand -10.3972 14.5881
rfingers 7.12502
rthumb 15.6012 -14.8027
lclavicle -9.05713e-015 -2.38542e-014
lhumerus 327.76 -1.22408 -267.337
lradius 16.0106
lwrist -23.8411
lhand -10.6372 21.7714
lfingers 7.12502
lthumb 15.3699 51.1801
rfemur 4.02042 11.1944 21.4184
rtibia -4.77083e-015
rfoot -7.30965 -12.4936
rtoes -13.8368
lfemur -5.4051 -22.1556 -16.3197
ltibia 15.6634
lfoot -15.2629 16.0056
ltoes -18.9134
